{"title":"masterchef australia s05e38 pdtv x264-RWN","uid":8857091,"size":309620972,"categoryP":"video","categoryS":"tv_shows","magnet":"?xt=urn:btih:e444d943cff590ca04b627645ac1565117800f39&amp;dn=masterchef+australia+s05e38+pdtv+x264-RWN&amp;tr=udp%3A%2F%2Ftracker.openbittorrent.com%3A80&amp;tr=udp%3A%2F%2Fopen.demonii.com%3A1337&amp;tr=udp%3A%2F%2Ftracker.coppersurfer.tk%3A6969&amp;tr=udp%3A%2F%2Fexodus.desync.com%3A6969","seeders":0,"leechers":0,"uploader":"rawenkoye","files":1,"time":1377687835,"description":"\n\n      Format : MPEG-4\n      Format profile : Base Media\n      Codec ID : isom\n      File size : 295 MiB\n      Duration : 43mn 42s\n      Overall bit rate mode : Variable\n      Overall bit rate : 945 Kbps\n      Encoded date : UTC 2013-07-24 13:21:57\n      Tagged date : UTC 2013-07-24 13:21:57\n   Video #1\n      ID : 1\n      Format : AVC\n      Format/Info : Advanced Video Codec\n      Format profile : &lt;a class=&quot;__cf_email__&quot; href=&quot;/cdn-cgi/l/email-protection&quot; data-cfemail=&quot;fbb3929c93bbb7c8d5ca&quot;&gt;[email&amp;#160;protected]&lt;/a&gt;&lt;script cf-hash='f9e31' type=&quot;text/javascript&quot;&gt;\n/* &lt;![CDATA[ */!function(){try{var t=&quot;currentScript&quot;in document?document.currentScript:function(){for(var t=document.getElementsByTagName(&quot;script&quot;),e=t.length;e--;)if(t[e].getAttribute(&quot;cf-hash&quot;))return t[e]}();if(t&amp;&amp;t.previousSibling){var e,r,n,i,c=t.previousSibling,a=c.getAttribute(&quot;data-cfemail&quot;);if(a){for(e=&quot;&quot;,r=parseInt(a.substr(0,2),16),n=2;a.length-n;n+=2)i=parseInt(a.substr(n,2),16)^r,e+=String.fromCharCode(i);e=document.createTextNode(e),c.parentNode.replaceChild(e,c)}}}catch(u){}}();/* ]]&gt; */&lt;/script&gt;\n      Format settings, CABAC : Yes\n      Format settings, ReFrames : 5 frames\n      Codec ID : avc1\n      Codec ID/Info : Advanced Video Coding\n      Duration : 43mn 42s\n      Bit rate : 810 Kbps\n      Maximum bit rate : 2 916 Kbps\n      Width : 716 pixels\n      Height : 402 pixels\n      Display aspect ratio : 16:9\n      Frame rate mode : Constant\n      Frame rate : 25.000 fps\n      Color space : YUV\n      Chroma subsampling : 4:2:0\n      Bit depth : 8 bits\n      Scan type : Progressive\n      Bits/(Pixel*Frame) : 0.113\n      Stream size : 253 MiB (86%)\n      Title : Video\n      Writing library : x264 core 135 r2345 f0c1c53\n     \n   Audio #2\n      ID : 2\n      Format : AAC\n      Format/Info : Advanced Audio Codec\n      Format profile : LC\n      Codec ID : 40\n      Duration : 43mn 42s\n      Bit rate mode : Variable\n      Bit rate : 132 Kbps\n      Maximum bit rate : 155 Kbps\n      Channel(s) : 2 channels\n      Channel positions : Front: L R\n      Sampling rate : 48.0 KHz\n      Compression mode : Lossy\n      Stream size : 40.9 MiB (14%)\n      Title : Audio\n      Language : English\n      Encoded date : UTC 2013-07-24 13:22:02\n      Tagged date : UTC 2013-07-24 13:22:03","torrent":{"xt":"urn:btih:e444d943cff590ca04b627645ac1565117800f39","amp;dn":"masterchef+australia+s05e38+pdtv+x264-RWN","amp;tr":["udp%3A%2F%2Ftracker.openbittorrent.com%3A80","udp%3A%2F%2Fopen.demonii.com%3A1337","udp%3A%2F%2Ftracker.coppersurfer.tk%3A6969","udp%3A%2F%2Fexodus.desync.com%3A6969"],"infoHash":"e444d943cff590ca04b627645ac1565117800f39","infoHashBuffer":{"type":"Buffer","data":[228,68,217,67,207,245,144,202,4,182,39,100,90,193,86,81,23,128,15,57]},"announce":[],"urlList":[]}}